<svg height="512" viewBox="0 0 58 58" width="512" xmlns="http://www.w3.org/2000/svg"><g id="Page-1" fill="none" fill-rule="evenodd"><g id="092---Bonsai-Tree" fill-rule="nonzero"><path id="Shape" d="m21 46c.0317784-3.7509483 1.0676729-7.4249207 3-10.64 10.48 1.64 12.28-4.11 14.34-5.77l.74-2.51-3-.38c-.9.73-2 1.59-3.06 2.3-1.7900676 1.0618576-3.891153 1.4750122-5.95 1.17 1.2896408-2.6518682 1.989037-5.5518037 2.05-8.5l-4.79 1.33c-.8193876 1.8429176-1.9453478 3.5335486-3.33 5-2.93-1-4.19-2.67-4.71-4.14l-4.29-.68c.22 2.57 1.08 6.06 4 7.82 0 0-6 4-7 15l5.88 1.5z" fill="#805333"/><path id="Shape" d="m54 46h-50c-2.209139 0-4 1.790861-4 4h2v2c0 3.3137085 2.6862915 6 6 6h42c3.3137085 0 6-2.6862915 6-6v-2h2c0-2.209139-1.790861-4-4-4z" fill="#955ba5"/><path id="Shape" d="m4 46h50c2.209139 0 4 1.790861 4 4h-58c0-2.209139 1.790861-4 4-4z" fill="#b49aca"/><path id="Shape" d="m38.19 20.08c-1.0195534-.9830653-1.7169227-2.2522775-2-3.64-.7615936.9893578-1.9414756 1.5663533-3.19 1.56-.4225391-.0054953-.8413597-.0798022-1.24-.22-.4149658 1.5630521-1.353972 2.9362604-2.66 3.89-1.1927564.8635415-2.6274612 1.3289457-4.1 1.33-.22 0-.45 0-.67 0-1.5679804-.146854-3.0389701-.8241442-4.17-1.92-.8448114 1.4325325-2.2463099 2.4501581-3.87 2.81-.4248488.0825507-.8573081.1194271-1.29.11-1.0550786-.002048-2.0905723-.285083-3-.82-.762188-.4418818-1.4177118-1.0461929-1.92-1.77-1.97295938 1.8201244-4.91479434 2.1083491-7.20349749.7057589-2.28870316-1.4025903-3.36733374-4.1546845-2.64117899-6.7388905.72615475-2.5842061 3.08038987-4.3716745 5.76467648-4.3768684.47511894-.0001195.94852468.0569578 1.41.17-.71579951-1.845193-.47560357-3.92468297.64200079-5.55810473 1.11760436-1.63342175 2.96883161-2.61062717 4.94799921-2.61189527.8709671-.00098094 1.7314217.19023121 2.52.56 1.0143153-2.2758128 3.3296075-3.68791634 5.8172929-3.54798403 2.4876853.1399323 4.6300117 1.80277688 5.3827071 4.17798403.4163659-.11975666.8468004-.18364928 1.28-.19 1.3102804.00285888 2.5670813.51994268 3.5 1.44 1.0699432-1.04930621 2.5541284-1.56337062 4.0438737-1.40064161 1.4897454.16272901 2.827949.98509078 3.6461263 2.24064161 2.551211-.80825882 5.3292625.17079017 6.81 2.4 2.441393 1.15805369 3.9982413 3.617874 4 6.32-.0239821 3.0903145-2.0468869 5.8090984-5 6.72z" fill="#14a085"/><path id="Shape" d="m53 22c-.7282857.0004668-1.4418909.2048489-2.06.59.0402492-.194078.0603558-.3917926.06-.59-.0010263-.9960356-.4963384-1.9266173-1.3219945-2.4837347-.8256561-.5571175-1.8739858-.6681193-2.7980055-.2962653-.4140947-1.4232998-1.8056231-2.3308036-3.2750654-2.1358776s-2.5762417 1.4338407-2.6049346 2.9158776c-.0003558.1982074.0197508.395922.06.59-.6181091-.3851511-1.3317143-.5895332-2.06-.59-1.995571.0239195-3.6681956 1.5151202-3.9200729 3.4948762-.2518774 1.979756.9940652 3.8422757 2.9200729 4.3651238v.14c.0030632 2.0531019 1.5600098 3.7704994 3.6029758 3.9742801 2.0429661.2037807 3.9084729-1.1722357 4.3170242-3.1842801.343976.1359795.7101325.2071766 1.08.21.9584307-.0030339 1.8577227-.4638282 2.42-1.24.8698815 1.7753222 2.9062441 2.6488624 4.7921412 2.0556889 1.8858972-.5931736 3.0555752-2.4751136 2.7525856-4.428741-.3029896-1.9536275-1.9877524-3.3928701-3.9647268-3.3869479z" fill="#26b99a"/></g></g></svg>