<svg height="448pt" viewBox="0 0 448 448" width="448pt" xmlns="http://www.w3.org/2000/svg"><path d="m280 0h144c13.253906 0 24 10.746094 24 24v144c0 13.253906-10.746094 24-24 24h-144c-13.253906 0-24-10.746094-24-24v-144c0-13.253906 10.746094-24 24-24zm0 0"/><path d="m24 0h144c13.253906 0 24 10.746094 24 24v144c0 13.253906-10.746094 24-24 24h-144c-13.253906 0-24-10.746094-24-24v-144c0-13.253906 10.746094-24 24-24zm0 0"/><path d="m280 256h144c13.253906 0 24 10.746094 24 24v144c0 13.253906-10.746094 24-24 24h-144c-13.253906 0-24-10.746094-24-24v-144c0-13.253906 10.746094-24 24-24zm0 0"/><path d="m24 256h144c13.253906 0 24 10.746094 24 24v144c0 13.253906-10.746094 24-24 24h-144c-13.253906 0-24-10.746094-24-24v-144c0-13.253906 10.746094-24 24-24zm0 0"/></svg>